<svg width="881" height="886" viewBox="0 0 881 886" fill="none" xmlns="http://www.w3.org/2000/svg">
<path fill-rule="evenodd" clip-rule="evenodd" d="M713.685 725.292C691.123 745.539 658.293 758.181 640.565 738.426C635.73 733.038 632.958 727.014 632.014 720.769C631.491 718.604 630.518 716.843 629.41 715.608C628.705 714.823 627.912 714.214 627.077 713.744C627.825 719.819 629.62 725.782 632.347 731.282L665.508 798.168C669.193 805.599 674.567 812.025 681.159 817.173L682.236 817.986L624.134 846.793C611.162 853.224 595.599 847.978 589.168 835.006C580.66 817.846 597.438 802.794 628.786 787.252C601.627 800.717 566.61 804.106 554.819 780.325C551.604 773.839 550.547 767.293 551.31 761.023C551.385 758.798 550.919 756.84 550.182 755.354C549.695 754.372 549.066 753.548 548.355 752.855C547.472 759.376 547.663 766.016 548.95 772.599L562.985 844.386C564.577 852.527 568.093 860.291 573.063 866.85L573.887 867.918L484.634 885.368C486.421 875.645 486.364 868.279 485.293 862.803C482.935 850.739 475.972 846.858 473.816 845.657C473.671 845.576 473.547 845.507 473.449 845.449L498.463 840.558C498.463 840.558 512.46 839.051 514.746 850.744C514.862 851.336 515.006 852.076 515.003 852.845C515.047 853.922 514.364 855.458 513.49 857.423C512.756 859.075 511.887 861.03 511.202 863.27C510.722 864.747 510.686 866.137 510.947 867.469C512.018 872.945 518.926 876.051 525.142 874.836C526.03 874.662 526.889 874.34 527.749 874.019C538.824 870.931 536.689 858.44 535.011 849.855L533.998 844.675C530.641 827.505 543.79 816.944 549.781 813.006C549.781 813.006 550.879 812.33 550.647 811.146C550.445 810.11 549.589 809.663 548.997 809.779L540.708 811.399C529.932 813.66 522.923 820.255 518.759 825.679C517.687 827.272 515.878 828.24 514.102 828.587C512.03 828.992 509.961 828.629 508.134 827.142C504.479 824.168 499.109 821.069 492.578 819.887C492.578 819.887 499.699 814.653 504.288 806.687C505.302 804.798 507.201 803.505 509.273 803.1C511.049 802.753 512.793 803.026 514.357 803.95C526.158 810.863 540.158 808.587 540.158 808.587L548.003 807.053C549.039 806.851 549.663 806.114 549.519 805.374L549.49 805.226C549.258 804.042 547.987 803.829 547.987 803.829C540.954 802.438 524.766 797.458 521.438 780.437L520.686 776.588C519.326 769.632 517.219 764.358 514.423 761.062C511.747 757.59 508.616 756.512 504.858 756.939C504.089 756.936 503.201 757.11 502.461 757.254C495.06 758.701 490.838 763.83 491.88 769.158C492.111 770.342 492.668 771.616 493.52 772.833C493.934 773.369 494.917 774.289 495.996 775.298C497.604 776.802 499.424 778.504 499.881 779.427C500.849 781.235 501.463 782.805 501.753 784.285C503.865 795.091 490.479 798.937 490.479 798.937L465.317 803.857C465.353 803.809 465.394 803.757 465.439 803.7L465.508 803.613L465.579 803.525C467.124 801.6 472.112 795.383 469.753 783.319C468.691 777.883 466.002 771.1 460.762 762.849C457.59 769.832 455.953 777.534 455.953 785.237L455.953 859.892C455.953 868.488 457.914 877.085 461.986 884.777L462.137 885.078L421.114 885.078L421.416 884.777C425.337 877.085 427.449 868.488 427.449 859.892L427.449 785.237C427.449 779.646 426.586 774.055 424.861 768.739C421.461 774.264 419.065 780.428 417.816 786.816L403.491 860.083C401.9 868.224 402.261 876.593 404.367 884.688L404.727 885.988L341.081 873.545C326.872 870.767 317.703 857.141 320.481 842.932C324.156 824.134 346.628 822.381 380.967 829.094C351.216 823.278 321.351 804.684 326.444 778.633C327.833 771.529 330.973 765.688 335.39 761.173C336.802 759.452 337.622 757.614 337.941 755.986C338.442 753.425 337.755 751.079 336.756 749.191C330.94 752.019 324.574 758.091 322.052 760.821L274.681 814.54C269.917 819.898 266.776 824.729 264.652 828.894C259.034 839.912 260.803 846.401 260.803 846.401L221.572 826.394L223.535 825.533C226.109 824.137 228.625 821.526 230.612 817.63C231.845 815.212 232.744 812.453 233.714 809.224L253.702 729.859C256.633 717.472 255.825 708.764 252.709 701.927L295.165 723.578C289.699 724.007 286.02 728.564 283.622 733.267C281.978 736.491 280.939 739.855 280.452 741.808C280.452 741.808 259.552 825.616 260.089 825.891C260.766 825.559 280.908 803.325 280.908 803.325C282.744 801.384 284.246 799.102 285.614 796.752L286.916 794.2C291.095 786.004 297.151 770.808 293.357 756.007C292.114 751.141 291.754 745.54 294.083 740.971C295.316 738.553 297.222 736.477 300.067 734.881C308.064 730.156 319.081 735.774 319.081 735.774L338.401 745.626L357.67 749.394C371.436 752.085 374.696 760.56 373.22 768.109C372.294 772.845 369.415 777.353 366.172 779.793C362.517 782.766 360.79 786.885 360.096 790.437C359.546 793.25 359.675 795.734 359.797 796.68C363.453 817.109 379.034 824.094 390.887 829.408L390.901 829.414C391.424 829.649 391.94 829.88 392.448 830.11C392.863 830.344 393.072 830.846 393.014 831.142C392.927 831.586 392.544 831.973 391.923 832.005C381.096 831.578 359.564 831.671 355.512 852.393C353.284 863.79 357.497 873.681 362.826 874.723C367.266 875.591 372.449 870.304 375.488 854.762L375.517 854.614C378.295 840.405 389.279 836.098 396.728 834.942C398.147 834.758 398.97 833.69 399.202 832.506C399.346 831.766 399.224 830.82 398.452 830.054C392.273 823.929 383.996 811.246 388.279 789.34L388.857 786.379C390.102 780.015 391.959 765.011 381.797 754.111L422.126 761.996C421.804 761.341 421.466 760.692 421.114 760.051L462.137 760.051C461.69 760.895 461.266 761.752 460.867 762.62L546.016 745.973L561.841 738.127C574.408 731.896 582.148 736.644 585.565 743.535C587.708 747.859 588.163 753.189 587.07 757.097C585.976 761.68 587.108 766 588.715 769.243C589.988 771.81 591.601 773.704 592.273 774.381C607.594 788.381 624.212 784.457 636.854 781.471C637.417 781.338 637.973 781.207 638.519 781.08C638.992 781.014 639.463 781.285 639.597 781.556C639.798 781.961 639.729 782.5 639.255 782.903C630.398 789.146 613.357 802.308 622.736 821.225C627.894 831.63 637.252 836.922 642.116 834.511C646.17 832.501 647.071 825.152 640.037 810.964L639.97 810.829C633.539 797.857 639.643 787.761 644.855 782.315C645.87 781.307 645.875 779.958 645.339 778.877C645.004 778.201 644.332 777.525 643.253 777.386C634.624 776.278 620.342 771.238 610.427 751.24L609.087 748.538C606.206 742.728 598.561 729.685 583.866 727.207L622.443 708.081L636.03 695.888C646.469 686.52 655.198 689.021 660.335 694.746C663.558 698.338 665.423 703.351 665.417 707.409C665.59 712.118 667.838 715.978 670.255 718.671C672.169 720.804 674.23 722.197 675.059 722.669C693.569 732.054 708.529 723.823 719.911 717.561C720.417 717.283 720.917 717.008 721.41 716.738C721.847 716.548 722.374 716.684 722.575 716.908C722.878 717.245 722.955 717.783 722.607 718.298C715.746 726.685 702.852 743.93 716.954 759.644C724.71 768.287 735.143 770.881 739.184 767.254C742.551 764.232 741.452 756.911 730.875 745.125L730.775 745.013C721.104 734.237 724.282 722.874 727.845 716.232C728.553 714.989 728.196 713.688 727.391 712.79C726.887 712.229 726.058 711.757 724.982 711.912C716.37 713.155 701.261 712.124 686.353 695.512L684.338 693.267C680.007 688.44 669.148 677.921 654.326 679.469L687.042 650.109L735.002 575.319C739.787 583.224 746.264 589.886 754.136 594.934L815.709 634.418C822.692 638.896 830.733 641.723 838.908 642.665L840.249 642.809L791.158 719.363C785.368 711.35 780.006 706.3 775.309 703.288C764.962 696.652 757.344 699.001 754.986 699.728L754.98 699.73C754.902 699.754 754.829 699.776 754.763 699.796C754.696 699.816 754.636 699.834 754.581 699.85L768.339 678.394C768.339 678.394 776.926 667.238 786.956 673.67L786.956 673.67C787.464 673.996 788.099 674.403 788.652 674.937C789.46 675.649 790.098 677.205 790.914 679.194L790.914 679.194L790.914 679.195L790.914 679.195L790.915 679.197C791.601 680.869 792.412 682.847 793.557 684.89C794.292 686.257 795.272 687.244 796.414 687.977C801.112 690.989 808.131 688.145 811.551 682.812C812.039 682.051 812.401 681.208 812.762 680.365L812.762 680.364C818.188 670.227 807.686 663.135 800.323 658.413L795.879 655.564C781.152 646.12 782.61 629.318 783.907 622.266C783.907 622.266 784.178 621.006 783.162 620.355C782.273 619.785 781.358 620.094 781.033 620.602L776.474 627.712C770.658 637.061 770.578 646.685 771.619 653.443C772.029 655.319 771.478 657.295 770.501 658.818C769.361 660.596 767.668 661.839 765.331 662.132C760.655 662.717 754.704 664.455 749.335 668.357C749.335 668.357 750.476 659.593 747.892 650.77C747.228 648.732 747.606 646.466 748.746 644.689C749.723 643.165 751.126 642.094 752.875 641.603C766.028 637.855 774.061 626.165 774.061 626.165L778.376 619.436C778.946 618.548 778.845 617.587 778.211 617.18L778.084 617.099C777.068 616.447 776.036 617.219 776.036 617.219C770.169 621.339 755.38 629.593 740.78 620.231L737.479 618.114C731.512 614.288 726.245 612.164 721.931 611.907C717.572 611.44 714.629 612.957 712.34 615.968C711.806 616.521 711.317 617.283 710.91 617.918C706.84 624.266 707.626 630.862 712.197 633.793C713.212 634.444 714.518 634.923 715.986 635.148C716.659 635.22 718.004 635.145 719.479 635.063C721.678 634.94 724.165 634.802 725.147 635.11C727.124 635.661 728.683 636.302 729.952 637.116C739.22 643.059 732.746 655.391 732.746 655.391L718.906 676.973C718.896 676.908 718.885 676.833 718.874 676.75L718.861 676.655L718.848 676.555C718.525 674.108 717.481 666.205 707.133 659.57C703.426 657.193 698.393 654.969 691.669 653.194C694.034 659.504 697.611 665.38 702.128 670.413L751.989 725.975C757.529 732.148 764.428 736.9 772.158 740.095L773.413 740.59L725.147 783.904C714.371 793.574 697.972 792.687 688.302 781.911C675.51 767.656 687.644 748.661 713.685 725.292ZM811.616 569.722C807.261 571.518 802.022 574.619 797.827 579.943C797.827 579.943 796.617 571.188 791.8 563.358C790.667 561.423 790.435 559.138 791.066 557.123C791.561 555.539 792.633 554.137 794.19 553.202C805.89 546.119 810.558 532.725 810.558 532.725L812.947 525.097C813.263 524.09 812.912 523.19 812.193 522.965L812.049 522.92C810.897 522.559 810.105 523.575 810.105 523.575C805.531 529.097 793.441 540.956 776.89 535.773L773.148 534.602C764.8 531.987 755.822 531.388 747.265 532.976L759.524 493.828C765.602 500.157 773.319 504.786 781.666 507.4L852.909 529.71C860.825 532.188 869.327 532.796 877.506 531.407L878.837 531.191L851.615 618.122C843.962 611.775 837.415 608.46 831.945 606.747C820.663 603.214 813.995 607.167 811.759 608.493C811.542 608.621 811.367 608.725 811.233 608.795L818.58 585.335C818.58 585.335 823.329 571.177 835.563 575.008C838.862 576.041 840.782 578.753 842.575 581.285C844.146 583.504 845.619 585.585 847.837 586.28C854.026 588.218 859.165 584.928 861.419 577.731C861.689 576.868 862.005 575.86 862.176 574.808C864.738 563.599 852.738 559.525 844.391 556.911L839.353 555.334C831.006 552.72 826.088 547.229 823.122 541.559C820.156 535.889 819.188 529.896 819.028 526.37C819.028 526.37 818.957 525.083 817.95 524.767L817.806 524.722C816.798 524.407 815.997 524.946 815.817 525.522L813.293 533.582C810.147 544.133 812.606 553.438 815.437 559.539C816.282 561.384 816.316 563.292 815.776 565.019C815.145 567.034 813.794 568.823 811.616 569.722ZM825.863 429.832C860.49 423.848 884.649 396.256 879.795 368.168C874.967 340.228 842.949 322.344 808.322 328.328C773.695 334.312 749.685 361.878 754.513 389.818C759.367 417.906 791.236 435.816 825.863 429.832ZM784.647 399.457C778.256 400.561 771.558 399.882 765.268 397.142C760.619 395.038 757.728 392.477 757.214 389.504C755.416 379.101 780.569 364.347 813.561 358.645C821.438 357.284 828.823 356.62 835.839 356.479C827.85 359.849 818.043 365.983 812.333 377.224C811.607 378.603 810.861 379.864 810.144 381.076L810.143 381.077L810.141 381.08L810.139 381.083L810.137 381.087L810.135 381.09C809.717 381.796 809.31 382.485 808.922 383.17C803.396 391.931 794.455 397.762 784.647 399.457ZM820.624 399.514C810.964 401.184 801.744 401.859 793.462 401.759C801.722 398.189 808.52 390.586 814.845 378.473C815.997 376.285 817.324 374.219 818.825 372.276C825.054 364.924 833.811 361.574 842.133 360.136C850.753 358.646 858.815 359.243 863.504 359.81C866.631 360.188 869.686 361.038 872.274 362.733C875.037 364.551 876.612 366.575 876.997 368.804C878.769 379.059 853.765 393.787 820.624 399.514ZM789.675 261.606C802.767 288.78 805.826 323.969 781.913 335.49C763.027 344.589 743.331 335.329 734.232 316.443L709.701 265.528L688.254 241.442C696.706 239.368 704.743 235.24 711.276 229.423L780.321 167.942L749.92 178.251C749.92 178.251 749.156 178.527 747.954 178.992C742.733 180.612 727.994 184.245 720.974 176.36C715.056 169.715 718.853 157.65 721.916 150.884C721.815 150.772 721.928 150.671 721.928 150.671L724.241 145.785L724.353 145.684L730.429 133.004C729.316 133.794 728.302 134.696 727.176 135.699L727.176 135.699L727.176 135.699L727.175 135.7L721.881 140.414C704.529 155.865 698.983 176.334 694.903 191.392C692.707 199.498 690.935 206.037 687.975 209.379L687.696 209.683L687.695 209.684L687.694 209.685L687.694 209.685L687.693 209.686L687.693 209.686L687.693 209.687L687.692 209.687L687.692 209.687L687.691 209.688L687.691 209.688C686.778 210.683 685.941 211.594 685.022 212.413C675.335 221.038 666.289 216.775 661.675 211.594L647.032 195.15C655.497 192.863 663.546 188.522 670.079 182.705L725.27 133.56C730.338 129.046 734.479 123.945 737.493 118.031L737.605 117.931L739.793 113.357C740.031 112.944 740.268 112.53 740.405 112.004L760.966 135.094L746.739 164.928C745.527 167.421 746.118 170.126 747.722 171.928C749.327 173.73 751.946 174.63 754.562 173.713L785.84 163.027L808.908 188.933L808.369 189.008C799.905 191.295 791.855 195.636 785.21 201.553L730.132 250.598C726.459 253.868 723.231 257.637 720.586 261.779C725.137 260.904 729.571 259.426 733.749 257.413L801.004 225.01C808.477 221.409 815.099 216.043 820.12 209.438L820.945 208.371L849.159 266.931C855.378 279.839 850.022 295.477 836.978 301.761C819.723 310.075 804.796 292.992 789.675 261.606ZM733.429 306.785C738.404 317.111 751.866 314.476 759.475 310.81C789.638 296.277 787.341 268.924 783.613 251.804C783.552 251.331 783.829 250.863 784.236 250.666C784.644 250.47 785.183 250.545 785.379 250.953C791.521 259.879 804.556 277.204 823.577 268.04C834.039 262.999 839.437 253.702 837.081 248.811C835.051 244.599 827.713 243.614 813.447 250.488L813.311 250.553C800.267 256.837 790.306 250.755 784.854 245.346C783.923 244.456 782.644 244.235 781.557 244.758C780.742 245.151 780.123 245.951 779.973 247.029C778.701 255.509 773.501 269.733 753.392 279.422L751.354 280.403C745.104 283.415 727.014 293.47 733.429 306.785ZM132.95 616.694C111.89 632.851 121.97 666.556 140.422 690.608C119.125 662.847 101.119 649.287 85.9223 660.946C74.4349 669.759 72.2896 686.041 81.1024 697.529L120.576 748.982L121.166 747.769C124.946 740.308 130.214 733.795 136.796 728.746L196.027 683.305C202.968 677.981 211.193 674.331 219.775 672.881L190.674 634.948C191.078 649.845 179.754 659.863 174.609 663.81L172.216 665.646C154.506 679.233 152.316 694.219 152.894 702.9C152.966 703.985 152.431 704.775 151.833 705.234C150.876 705.968 149.551 706.224 148.366 705.423C142.017 701.359 130.933 697.317 119.446 706.13L119.326 706.222C106.762 715.861 99.3769 716.394 96.623 712.804C93.3181 708.496 96.7061 698.294 105.92 691.225C122.672 678.373 138.875 692.555 146.709 700.041C147.196 700.428 147.738 700.392 148.097 700.117C148.337 699.933 148.512 699.418 148.356 698.967C148.126 698.456 147.89 697.936 147.651 697.409C142.283 685.58 135.227 670.031 146.008 652.297C146.542 651.507 148.089 649.56 150.363 647.816C153.235 645.612 157.256 643.668 161.963 643.858C166.009 644.176 171.151 642.702 174.98 639.765C181.083 635.083 184.248 626.572 175.711 615.444L163.395 599.391C164.443 599.359 165.492 599.358 166.539 599.39L148.456 562.569C143.413 569.75 136.492 575.501 128.641 579.357L61.6309 612.266C53.9146 616.055 45.2676 617.949 36.635 617.82L36.2313 617.682L54.3145 654.504L54.5188 654.236C59.6278 647.19 66.4798 641.641 74.196 637.851L141.206 604.942C147.239 601.979 153.823 600.135 160.496 599.56C160.216 602.078 159.277 605.241 156.558 607.327C155.242 608.337 153.411 609.171 151.212 609.527C144.913 609.988 138.694 612.288 132.95 616.694ZM14.1765 550.601L2.7354 507.45C2.7354 507.45 15.0692 510.421 29.4771 510.033C36.8997 509.782 43.3228 508.703 48.8624 507.234C64.3151 503.137 73.3513 495.436 77.5943 490.254L85.4408 519.848C88.5716 531.656 82.1296 539.137 73.3828 541.456C68.8637 542.654 63.5206 542.511 58.7044 540.823C52.4872 538.624 44.962 534.23 36.5776 529.334L36.5583 529.323C35.8736 528.923 35.1832 528.52 34.4873 528.114C34.0354 527.851 33.5812 527.587 33.1247 527.322C29.4747 525.325 25.1522 524.911 21.5076 525.877C16.1138 527.307 12.1147 531.644 13.8928 538.35L14.2793 539.808C19.1495 558.176 49.5499 563.378 80.7468 555.106C112.964 546.564 123.21 528.713 124.119 518.018C124.503 514.171 124.051 510.702 123.24 507.641C119.027 491.751 102.374 486.025 98.887 485.233C127.443 489.364 133.132 506.111 136.379 518.356C143.877 546.637 122.646 576.607 88.8252 585.574C56.1705 594.232 23.6651 579.915 15.018 553.186L14.1765 550.601ZM102.18 398.656L22.1412 415.744C18.8148 416.299 15.943 416.71 13.2286 416.67C8.85534 416.607 5.40228 415.501 3.01355 413.807L1.37448 412.425L0.734488 456.459C0.734488 456.459 5.77664 452.008 18.1424 452.187C22.8172 452.255 28.5388 452.942 35.4494 454.852L104.559 473.655C109.365 475.082 122.716 480.103 125.343 486.174L125.724 459.935C125.724 459.935 125.904 447.569 118.135 442.479C115.447 440.63 112.743 439.836 110.029 439.797C104.902 439.722 100.034 442.518 96.216 445.78C84.6083 455.717 68.2999 456.989 59.101 456.855L56.2359 456.813C53.5236 456.623 50.8136 456.282 48.2609 455.491C48.2609 455.491 19.4211 447.228 18.8244 446.767C18.8332 446.164 103.263 427.934 103.263 427.934C105.23 427.51 108.707 426.957 112.326 427.01C117.604 427.086 123.317 428.376 126.115 433.092L126.678 394.351L139.655 350.655C127.834 359.731 113.076 356.449 106.859 354.603L103.968 353.744C82.5707 347.389 69.1557 354.418 62.4683 359.984C61.6323 360.679 60.679 360.711 59.9561 360.496C58.7995 360.153 57.8147 359.231 57.7674 357.801C57.3276 350.276 54.0892 338.931 40.21 334.809L40.0654 334.766C24.885 330.257 20.1167 324.593 21.4048 320.256C22.9505 315.051 33.198 311.802 44.3303 315.108C64.5709 321.119 62.6078 342.562 61.1496 353.299C61.1225 353.92 61.4703 354.338 61.9041 354.467C62.1932 354.553 62.7128 354.393 62.9862 354.002C63.2651 353.514 63.5471 353.019 63.833 352.516C70.2548 341.224 78.6957 326.381 99.3805 324.692C100.334 324.66 102.819 324.769 105.566 325.585C109.036 326.615 112.971 328.728 115.582 332.65C117.7 336.111 121.913 339.407 126.54 340.781C133.913 342.971 142.66 340.535 146.653 327.089L151.511 310.733L174.983 273.508C176.994 270.319 200.749 230.383 149.437 196.958L148.161 196.154C118.436 177.411 89.3566 177.439 73.8095 199.551L44.2071 246.498C53.0129 247.237 61.4912 249.908 68.8904 254.574L132.039 294.392C134.463 295.92 136.599 297.623 138.781 299.535C139.164 299.776 139.547 300.017 139.721 300.306C139.795 300.352 139.862 300.409 139.926 300.47C139.973 300.516 140.018 300.563 140.064 300.611C140.116 300.665 140.168 300.719 140.222 300.77C140.28 300.824 140.34 300.874 140.406 300.916C141.091 301.526 141.649 302.056 142.126 302.713L142.381 302.874C143.635 304.209 144.844 305.616 145.98 307.093C144.712 307.274 143.359 307.231 141.975 306.82C140.384 306.348 138.634 305.356 137.055 303.786C132.982 298.958 127.468 295.275 120.529 293.214C95.0832 285.657 73.7232 313.611 65.0928 342.67C75.0542 309.129 75.4541 286.593 57.0929 281.14C43.2137 277.018 28.7752 284.844 24.6532 298.723L6.19035 360.891L7.51873 360.656C15.778 359.333 24.1433 359.772 32.0949 362.133L103.66 383.387C109.554 385.138 115.15 387.888 120.113 391.483C115.686 394.465 109.889 396.895 102.18 398.656ZM165.491 280.361L164.767 281.509L84.0134 230.59C83.9496 230.55 83.9059 230.478 83.8622 230.405C83.8185 230.333 83.7748 230.261 83.711 230.221C82.5629 229.497 81.4147 228.773 80.347 227.921C80.0919 227.761 79.7092 227.519 79.4069 227.15L79.1304 226.93L79.0872 226.896C78.104 226.114 77.0339 225.262 76.029 224.307C75.9551 224.261 75.8879 224.203 75.8235 224.141C75.806 224.124 75.7886 224.107 75.7714 224.09C75.743 224.061 75.715 224.032 75.687 224.003L75.6865 224.002L75.686 224.002C75.6507 223.965 75.6153 223.928 75.5793 223.892C75.5322 223.845 75.4839 223.8 75.4327 223.76C75.4041 223.738 75.3746 223.716 75.344 223.697C70.5352 218.882 68.1893 213.837 71.8895 207.968L72.1309 207.586C73.4983 205.417 83.9054 193.436 131.108 223.2L132.383 224.004C178.451 253.587 168.548 275.513 165.491 280.361ZM151.366 109.521C172.727 90.6477 208.893 96.7296 232.16 123.063C255.428 149.397 256.91 185.923 235.549 204.797C214.302 223.571 178.236 217.602 154.968 191.269C131.7 164.935 130.118 128.295 151.366 109.521ZM236.139 191.798C235.17 185.007 232.232 178.949 227.938 174.089C221.347 166.63 211.692 162.079 201.334 161.973C200.544 162.003 199.741 162.018 198.918 162.033L198.91 162.033C197.503 162.059 196.037 162.085 194.482 162.191C181.917 163.231 171.549 158.102 164.488 153.071C168.29 158.969 172.731 164.907 178.024 170.897C200.193 195.987 225.953 209.653 233.865 202.663C236.125 200.666 236.788 196.86 236.139 191.798ZM225.271 165.376C221.009 158.275 215.595 150.781 209.104 143.435C186.835 118.232 161.175 104.679 153.377 111.569C151.681 113.067 150.785 115.469 150.687 118.775C150.603 121.869 151.483 124.915 152.802 127.774C154.781 132.064 158.504 139.239 164.296 145.794C169.889 152.123 177.336 157.819 186.863 159.263C189.305 159.52 191.76 159.565 194.228 159.397C207.857 158.423 217.897 160.219 225.271 165.376ZM385.425 1.62162L342.11 12.4262L339.513 13.2295C312.66 21.4822 297.865 53.7732 306.042 86.5518C314.51 120.501 344.164 142.171 372.552 135.09C384.844 132.024 401.673 126.582 406.224 98.0899C405.381 101.564 399.41 118.131 383.46 122.11C380.387 122.877 376.912 123.277 373.071 122.836C362.391 121.77 344.692 111.263 336.625 78.9229C328.814 47.6077 334.463 17.2871 352.901 12.6878L354.364 12.3228C361.095 10.6438 365.373 14.7062 366.724 20.1205C367.636 23.7788 367.158 28.0949 365.108 31.715C364.414 32.8708 363.725 34.012 363.045 35.1376L363.044 35.1394C358.026 43.4502 353.522 50.9095 351.232 57.0932C349.473 61.8841 349.251 67.2244 350.383 71.7608C352.573 80.5407 359.958 87.0921 371.811 84.1355L401.517 76.7257C396.398 72.4067 388.831 63.2581 384.962 47.7468C383.575 42.1861 382.59 35.7478 382.448 28.3224C382.273 13.9103 385.425 1.62162 385.425 1.62162ZM459.945 0.247917C488.434 1.1799 510.565 30.4235 509.416 65.545C508.267 100.667 484.277 128.251 455.788 127.319C427.449 126.392 405.314 97.2987 406.463 62.1771C407.612 27.0556 431.606 -0.679114 459.945 0.247917ZM465.138 118.269C469.093 112.664 471.114 106.242 471.326 99.7599C471.652 89.8114 467.752 79.8755 460.291 72.6901C459.694 72.1683 459.098 71.6258 458.487 71.0699C457.446 70.1227 456.362 69.1364 455.158 68.1461C445.305 60.2789 441.284 49.4337 439.601 40.9284C438.319 47.8277 437.474 55.1941 437.213 63.1831C436.118 96.6465 445.476 124.265 456.027 124.61C459.042 124.709 462.136 122.396 465.138 118.269ZM475.366 91.5927C477.14 83.5023 478.345 74.337 478.665 64.5391C479.765 30.9249 470.403 3.45709 460.002 3.11683C457.741 3.04285 455.44 4.17478 453.1 6.51262C450.916 8.70461 449.466 11.5242 448.463 14.5094C446.958 18.9871 444.742 26.7613 444.456 35.504C444.18 43.9452 445.688 53.1993 451.627 60.7875C453.225 62.6506 454.98 64.3679 456.89 65.9393C467.472 74.5849 473.542 82.781 475.366 91.5927ZM572.489 107.532C570.9 107.053 555.895 103.009 551.374 118.028C550.852 119.761 550.475 121.538 550.43 123.257C550.371 124.499 550.211 125.553 549.864 126.709C547.777 133.641 539.886 137.881 532.376 135.62L513.891 130.056C513.169 129.838 512.765 129.087 512.939 128.509C513.069 128.076 513.301 127.831 513.821 127.672C521.09 124.978 536.207 116.613 543.206 93.3621L558.595 42.2388C561.116 33.8627 565.616 26.2396 571.92 19.9471L532.639 8.12304C534.147 17.2396 533.561 26.5132 530.866 35.467L509.782 105.509C507.304 113.741 502.949 121.407 496.833 127.599L496.602 127.844L574.297 151.231C573.339 141.335 574.126 134.012 575.777 128.524C579.278 116.896 586.582 113.73 588.851 112.747C589.005 112.68 589.136 112.623 589.241 112.574L572.489 107.532ZM677.84 67.1354C702.066 82.1547 706.659 118.54 688.143 148.406C669.627 178.273 635.076 190.212 610.849 175.193C586.751 160.253 582.079 123.997 600.595 94.13C619.11 64.2635 653.742 52.1956 677.84 67.1354ZM623.467 172.014C629.691 169.13 634.647 164.571 638.064 159.059C643.308 150.599 644.885 140.043 642.003 130.093C641.746 129.343 641.5 128.576 641.247 127.789C640.818 126.449 640.37 125.053 639.821 123.595C635.206 111.861 637.131 100.456 639.915 92.2445C635.362 97.5846 630.956 103.548 626.744 110.341C609.102 138.798 603.435 167.403 612.408 172.965C614.971 174.555 618.806 174.093 623.467 172.014ZM645.639 153.996C651.212 147.869 656.829 140.527 661.994 132.195C679.715 103.61 685.303 75.1335 676.458 69.6503C674.535 68.4583 671.977 68.2918 668.783 69.1507C665.796 69.9609 663.133 71.6811 660.774 73.768C657.237 76.8982 651.438 82.5306 646.829 89.9652C642.379 97.1434 639.069 105.916 640.431 115.455C640.887 117.868 641.551 120.231 642.423 122.546C647.282 135.318 648.453 145.449 645.639 153.996Z" fill="#08101C"/>
</svg>
