<svg width="28" height="30" viewBox="0 0 28 30" fill="none" xmlns="http://www.w3.org/2000/svg">
<path d="M6.30965 5.16481C8.21845 2.19556 11.5765 0.710938 16.3839 0.710938V7.02059C15.8183 6.91454 15.3058 6.86152 14.8462 6.86152C12.2658 6.86152 10.251 7.62151 8.8017 9.14148C7.35242 10.6261 6.62778 12.7823 6.62778 15.6102V29.343H0V1.02907H6.30965V5.16481Z" fill="#08101C"/>
<path d="M22.2653 29.3076C21.0635 29.3076 20.0384 28.9011 19.19 28.088C18.3417 27.2397 17.9175 26.1792 17.9175 24.9067C17.9175 23.5988 18.324 22.5384 19.137 21.7254C19.9853 20.9124 21.0281 20.5059 22.2653 20.5059C23.5025 20.5059 24.5276 20.9124 25.3406 21.7254C26.189 22.5384 26.6131 23.5988 26.6131 24.9067C26.6131 26.1792 26.189 27.2397 25.3406 28.088C24.4922 28.9011 23.4671 29.3076 22.2653 29.3076Z" fill="#3CFFDC"/>
</svg>
