<svg width="30" height="22" viewBox="0 0 30 22" fill="none" xmlns="http://www.w3.org/2000/svg">
<path d="M25.215 1.82368C23.3754 0.979578 21.4027 0.357681 19.3401 0.00149416C19.3025 -0.00538013 19.265 0.0117991 19.2456 0.0461583C18.9919 0.497402 18.7109 1.08609 18.5141 1.54879C16.2956 1.21666 14.0885 1.21666 11.9156 1.54879C11.7187 1.0758 11.4275 0.497402 11.1726 0.0461583C11.1533 0.0129455 11.1158 -0.00423374 11.0782 0.00149416C9.01673 0.356542 7.04401 0.978439 5.20323 1.82368C5.1873 1.83055 5.17364 1.84201 5.16457 1.85689C1.42272 7.44714 0.397672 12.9 0.900527 18.2852C0.902802 18.3116 0.917592 18.3368 0.93807 18.3528C3.40684 20.1658 5.79826 21.2664 8.14527 21.996C8.18284 22.0075 8.22263 21.9937 8.24654 21.9628C8.80172 21.2046 9.29662 20.4052 9.72095 19.5645C9.74599 19.5153 9.72209 19.4569 9.67091 19.4374C8.88592 19.1396 8.13844 18.7765 7.41943 18.3642C7.36256 18.331 7.358 18.2497 7.41032 18.2107C7.56163 18.0974 7.71298 17.9794 7.85746 17.8603C7.88359 17.8385 7.92002 17.8339 7.95075 17.8477C12.6744 20.0043 17.7883 20.0043 22.4561 17.8477C22.4869 17.8328 22.5233 17.8374 22.5506 17.8591C22.6951 17.9783 22.8464 18.0974 22.9989 18.2107C23.0512 18.2497 23.0478 18.331 22.9909 18.3642C22.2719 18.7845 21.5244 19.1396 20.7383 19.4362C20.6871 19.4557 20.6643 19.5153 20.6894 19.5645C21.1228 20.404 21.6177 21.2034 22.1626 21.9616C22.1854 21.9937 22.2263 22.0075 22.2639 21.996C24.6223 21.2664 27.0137 20.1658 29.4825 18.3528C29.5041 18.3368 29.5178 18.3127 29.52 18.2864C30.1218 12.0604 28.512 6.65231 25.2526 1.85803C25.2446 1.84201 25.231 1.83055 25.215 1.82368ZM10.4263 15.0062C9.00421 15.0062 7.83241 13.7005 7.83241 12.0971C7.83241 10.4937 8.98149 9.18803 10.4263 9.18803C11.8826 9.18803 13.043 10.5051 13.0202 12.0971C13.0202 13.7005 11.8712 15.0062 10.4263 15.0062ZM20.017 15.0062C18.5949 15.0062 17.4231 13.7005 17.4231 12.0971C17.4231 10.4937 18.5721 9.18803 20.017 9.18803C21.4732 9.18803 22.6336 10.5051 22.6109 12.0971C22.6109 13.7005 21.4732 15.0062 20.017 15.0062Z" fill="#825F99"/>
</svg>
