<svg width="350" height="50" viewBox="0 0 350 50" fill="none" xmlns="http://www.w3.org/2000/svg">
<path d="M150 0H140H130V10V20V30V40V50H140V40V30H150V40V50H160V40V30V20V10V0H150ZM150 20H140V10H150V20Z" fill="#5C8599"/>
<path d="M110 0H100H90V10H100V20V30V40V50H110V40V30V20V10H120V0H110Z" fill="#5C8599"/>
<path d="M70 0H60H50V10V20V30V40V50H60H70H80V40H70H60V30H70V20H60V10H70H80V0H70Z" fill="#5C8599"/>
<path d="M30 0L25 5L20 10L15 5L10 0H0V10V20V30V40V50H10V40V30V20V10L15 15L20 20L25 15L30 10V20V30V40V50H40V40V30V20V10V0H30Z" fill="#5C8599"/>
<path d="M240 0H230L225 5L220 10V20V30V40L225 45L230 50H240L245 45L250 40V30V20V10L245 5L240 0ZM240 20V30V40H230V30V20V10H240V20Z" fill="#825F99"/>
<path d="M200 0V10V20L195 15L190 10L185 5L180 0H170V10V20V30V40V50H180V40V30V20V10L185 15L190 20L195 25L200 30V40V50H210V40V30V20V10V0H200Z" fill="#825F99"/>
<path d="M340 10H350V0H340H330L325 5L320 10V20L325 25L330 30H340V40H330H320V50H330H340L345 45L350 40V30L345 25L340 20H330V10H340Z" fill="#825F99"/>
<path d="M300 0H290H280V10V20V30V40V50H290H300L305 45L310 40V30V20V10L305 5L300 0ZM300 20V30V40H290V30V20V10H300V20Z" fill="#825F99"/>
<path d="M260 0V10V20V30V40V50H270V40V30V20V10V0H260Z" fill="#825F99"/>
</svg>
