<svg width="27" height="22" viewBox="0 0 27 22" fill="none" xmlns="http://www.w3.org/2000/svg">
<path d="M27 2.60424C26.0067 3.04604 24.9389 3.3445 23.8186 3.47877C24.9622 2.79143 25.8406 1.70304 26.2541 0.406069C25.1837 1.04264 23.9983 1.50474 22.7364 1.7538C21.7261 0.67434 20.2864 0 18.6932 0C15.6341 0 13.1537 2.48661 13.1537 5.55377C13.1537 5.98907 13.2027 6.41301 13.2972 6.81948C8.69343 6.58789 4.61183 4.37672 1.8797 1.01652C1.40288 1.83677 1.12964 2.79076 1.12964 3.80863C1.12964 5.73555 2.10758 7.43548 3.59393 8.43142C2.68592 8.40259 1.83177 8.15273 1.08495 7.73678C1.08432 7.75993 1.08432 7.78321 1.08432 7.80663C1.08432 10.4975 2.99377 12.7421 5.52785 13.2527C5.06305 13.3796 4.57367 13.4474 4.0685 13.4474C3.71156 13.4474 3.36461 13.4125 3.0263 13.3478C3.73127 15.5542 5.77693 17.16 8.20099 17.2046C6.30519 18.6943 3.91676 19.5823 1.32138 19.5823C0.874261 19.5823 0.433351 19.5559 0 19.5046C2.45147 21.0805 5.36315 22 8.49138 22C18.6803 22 24.2521 13.5372 24.2521 6.19765C24.2521 5.95686 24.2467 5.71741 24.236 5.47905C25.3182 4.69616 26.2573 3.71808 26.9999 2.60424H27Z" fill="#5C8599"/>
</svg>
